<svg width="37" height="36" viewBox="0 0 37 36" fill="none" xmlns="http://www.w3.org/2000/svg">
<path d="M21.9987 15H36.9987V9.24304e-06L31.6587 5.34001C30.0099 3.65234 28.0409 2.31073 25.867 1.39377C23.6931 0.476823 21.3581 0.00297893 18.9987 9.24304e-06C15.5661 -0.00346869 12.2041 0.974618 9.3091 2.81894C6.41409 4.66327 4.10678 7.29692 2.65926 10.4094C1.21173 13.5218 0.684335 16.9833 1.13926 20.3856C1.59419 23.7879 3.01247 26.9892 5.22686 29.612C7.44126 32.2348 10.3594 34.1697 13.6373 35.1887C16.9152 36.2076 20.4161 36.268 23.7271 35.3629C27.0382 34.4577 30.0215 32.6246 32.3251 30.0798C34.6287 27.535 36.1566 24.3846 36.7287 21H30.5787C30.0172 23.1747 28.8566 25.1482 27.2289 26.696C25.6013 28.2437 23.5719 29.3036 21.3717 29.755C19.1715 30.2065 16.8888 30.0314 14.7831 29.2496C12.6775 28.4679 10.8336 27.1109 9.46102 25.333C8.08849 23.5551 7.24247 21.4277 7.01921 19.1927C6.79596 16.9578 7.20442 14.7051 8.19813 12.6908C9.19185 10.6765 10.7309 8.98159 12.6403 7.79876C14.5497 6.61594 16.7527 5.99272 18.9987 6.00001C20.5707 6.00462 22.1259 6.32273 23.5734 6.93573C25.0209 7.54872 26.3316 8.44429 27.4287 9.57001L21.9987 15Z" fill="white"/>
</svg>
