<svg width="35" height="35" viewBox="0 0 35 35" fill="none" xmlns="http://www.w3.org/2000/svg">
<path d="M19.6875 2.1875C19.6875 1.60734 19.457 1.05094 19.0468 0.640706C18.6366 0.23047 18.0802 0 17.5 0C16.9198 0 16.3634 0.23047 15.9532 0.640706C15.543 1.05094 15.3125 1.60734 15.3125 2.1875V15.3125H2.1875C1.60734 15.3125 1.05094 15.543 0.640706 15.9532C0.23047 16.3634 0 16.9198 0 17.5C0 18.0802 0.23047 18.6366 0.640706 19.0468C1.05094 19.457 1.60734 19.6875 2.1875 19.6875H15.3125V32.8125C15.3125 33.3927 15.543 33.9491 15.9532 34.3593C16.3634 34.7695 16.9198 35 17.5 35C18.0802 35 18.6366 34.7695 19.0468 34.3593C19.457 33.9491 19.6875 33.3927 19.6875 32.8125V19.6875H32.8125C33.3927 19.6875 33.9491 19.457 34.3593 19.0468C34.7695 18.6366 35 18.0802 35 17.5C35 16.9198 34.7695 16.3634 34.3593 15.9532C33.9491 15.543 33.3927 15.3125 32.8125 15.3125H19.6875V2.1875Z" fill="white"/>
</svg>
