<svg width="47" height="66" viewBox="0 0 47 66" fill="none" xmlns="http://www.w3.org/2000/svg">
<path d="M5.0957 50.5059C4.68555 50.5059 4.31836 50.5801 3.99414 50.7285C3.67383 50.877 3.40234 51.0918 3.17969 51.373C2.95703 51.6504 2.78711 51.9883 2.66992 52.3867C2.55273 52.7812 2.49414 53.2266 2.49414 53.7227C2.49414 54.3867 2.58789 54.959 2.77539 55.4395C2.96289 55.916 3.24805 56.2832 3.63086 56.541C4.01367 56.7949 4.49805 56.9219 5.08398 56.9219C5.44727 56.9219 5.80078 56.8867 6.14453 56.8164C6.48828 56.7461 6.84375 56.6504 7.21094 56.5293V57.7246C6.86328 57.8613 6.51172 57.9609 6.15625 58.0234C5.80078 58.0859 5.39062 58.1172 4.92578 58.1172C4.05078 58.1172 3.32422 57.9355 2.74609 57.5723C2.17188 57.209 1.74219 56.6973 1.45703 56.0371C1.17578 55.377 1.03516 54.6035 1.03516 53.7168C1.03516 53.0684 1.125 52.4746 1.30469 51.9355C1.48438 51.3965 1.74609 50.9316 2.08984 50.541C2.43359 50.1465 2.85742 49.8438 3.36133 49.6328C3.86914 49.418 4.44922 49.3105 5.10156 49.3105C5.53125 49.3105 5.95312 49.3594 6.36719 49.457C6.78516 49.5508 7.17188 49.6855 7.52734 49.8613L7.03516 51.0215C6.73828 50.8809 6.42773 50.7598 6.10352 50.6582C5.7793 50.5566 5.44336 50.5059 5.0957 50.5059ZM10.293 58H8.91016V48.8828H10.293V58ZM13.6387 51.5137V58H12.2617V51.5137H13.6387ZM12.959 49.0293C13.1699 49.0293 13.3516 49.0859 13.5039 49.1992C13.6602 49.3125 13.7383 49.5078 13.7383 49.7852C13.7383 50.0586 13.6602 50.2539 13.5039 50.3711C13.3516 50.4844 13.1699 50.541 12.959 50.541C12.7402 50.541 12.5547 50.4844 12.4023 50.3711C12.2539 50.2539 12.1797 50.0586 12.1797 49.7852C12.1797 49.5078 12.2539 49.3125 12.4023 49.1992C12.5547 49.0859 12.7402 49.0293 12.959 49.0293ZM18.1973 51.3906C18.7754 51.3906 19.2715 51.5098 19.6855 51.748C20.0996 51.9863 20.418 52.3242 20.6406 52.7617C20.8633 53.1992 20.9746 53.7227 20.9746 54.332V55.0703H16.6445C16.6602 55.6992 16.8281 56.1836 17.1484 56.5234C17.4727 56.8633 17.9258 57.0332 18.5078 57.0332C18.9219 57.0332 19.293 56.9941 19.6211 56.916C19.9531 56.834 20.2949 56.7148 20.6465 56.5586V57.6777C20.3223 57.8301 19.9922 57.9414 19.6562 58.0117C19.3203 58.082 18.918 58.1172 18.4492 58.1172C17.8125 58.1172 17.252 57.9941 16.7676 57.748C16.2871 57.498 15.9102 57.127 15.6367 56.6348C15.3672 56.1426 15.2324 55.5312 15.2324 54.8008C15.2324 54.0742 15.3555 53.457 15.6016 52.9492C15.8477 52.4414 16.1934 52.0547 16.6387 51.7891C17.084 51.5234 17.6035 51.3906 18.1973 51.3906ZM18.1973 52.4277C17.7637 52.4277 17.4121 52.5684 17.1426 52.8496C16.877 53.1309 16.7207 53.543 16.6738 54.0859H19.627C19.623 53.7617 19.5684 53.4746 19.4629 53.2246C19.3613 52.9746 19.2051 52.7793 18.9941 52.6387C18.7871 52.498 18.5215 52.4277 18.1973 52.4277ZM25.9082 51.3906C26.6387 51.3906 27.207 51.5801 27.6133 51.959C28.0234 52.334 28.2285 52.9375 28.2285 53.7695V58H26.8516V54.0273C26.8516 53.5234 26.748 53.1465 26.541 52.8965C26.334 52.6426 26.0137 52.5156 25.5801 52.5156C24.9512 52.5156 24.5137 52.709 24.2676 53.0957C24.0254 53.4824 23.9043 54.043 23.9043 54.7773V58H22.5273V51.5137H23.5996L23.793 52.3926H23.8691C24.0098 52.166 24.1836 51.9805 24.3906 51.8359C24.6016 51.6875 24.8359 51.5762 25.0938 51.502C25.3555 51.4277 25.627 51.3906 25.9082 51.3906ZM32.5703 57.0039C32.75 57.0039 32.9277 56.9883 33.1035 56.957C33.2793 56.9219 33.4395 56.8809 33.584 56.834V57.877C33.4316 57.9434 33.2344 58 32.9922 58.0469C32.75 58.0938 32.498 58.1172 32.2363 58.1172C31.8691 58.1172 31.5391 58.0566 31.2461 57.9355C30.9531 57.8105 30.7207 57.5977 30.5488 57.2969C30.377 56.9961 30.291 56.5801 30.291 56.0488V52.5625H29.4062V51.9473L30.3555 51.4609L30.8066 50.0723H31.6738V51.5137H33.5312V52.5625H31.6738V56.0312C31.6738 56.3594 31.7559 56.6035 31.9199 56.7637C32.084 56.9238 32.3008 57.0039 32.5703 57.0039ZM37.4863 51.3906C38.0645 51.3906 38.5605 51.5098 38.9746 51.748C39.3887 51.9863 39.707 52.3242 39.9297 52.7617C40.1523 53.1992 40.2637 53.7227 40.2637 54.332V55.0703H35.9336C35.9492 55.6992 36.1172 56.1836 36.4375 56.5234C36.7617 56.8633 37.2148 57.0332 37.7969 57.0332C38.2109 57.0332 38.582 56.9941 38.9102 56.916C39.2422 56.834 39.584 56.7148 39.9355 56.5586V57.6777C39.6113 57.8301 39.2812 57.9414 38.9453 58.0117C38.6094 58.082 38.207 58.1172 37.7383 58.1172C37.1016 58.1172 36.541 57.9941 36.0566 57.748C35.5762 57.498 35.1992 57.127 34.9258 56.6348C34.6562 56.1426 34.5215 55.5312 34.5215 54.8008C34.5215 54.0742 34.6445 53.457 34.8906 52.9492C35.1367 52.4414 35.4824 52.0547 35.9277 51.7891C36.373 51.5234 36.8926 51.3906 37.4863 51.3906ZM37.4863 52.4277C37.0527 52.4277 36.7012 52.5684 36.4316 52.8496C36.166 53.1309 36.0098 53.543 35.9629 54.0859H38.916C38.9121 53.7617 38.8574 53.4746 38.752 53.2246C38.6504 52.9746 38.4941 52.7793 38.2832 52.6387C38.0762 52.498 37.8105 52.4277 37.4863 52.4277ZM46.1758 56.1484C46.1758 56.5742 46.0723 56.9336 45.8652 57.2266C45.6582 57.5195 45.3555 57.7422 44.957 57.8945C44.5625 58.043 44.0781 58.1172 43.5039 58.1172C43.0508 58.1172 42.6602 58.084 42.332 58.0176C42.0078 57.9551 41.7012 57.8574 41.4121 57.7246V56.5352C41.7207 56.6797 42.0664 56.8047 42.4492 56.9102C42.8359 57.0156 43.2012 57.0684 43.5449 57.0684C43.998 57.0684 44.3242 56.998 44.5234 56.8574C44.7227 56.7129 44.8223 56.5215 44.8223 56.2832C44.8223 56.1426 44.7812 56.0176 44.6992 55.9082C44.6211 55.7949 44.4727 55.6797 44.2539 55.5625C44.0391 55.4414 43.7227 55.2969 43.3047 55.1289C42.8945 54.9648 42.5488 54.8008 42.2676 54.6367C41.9863 54.4727 41.7734 54.2754 41.6289 54.0449C41.4844 53.8105 41.4121 53.5117 41.4121 53.1484C41.4121 52.5742 41.6387 52.1387 42.0918 51.8418C42.5488 51.541 43.1523 51.3906 43.9023 51.3906C44.3008 51.3906 44.6758 51.4316 45.0273 51.5137C45.3828 51.5918 45.7305 51.707 46.0703 51.8594L45.6367 52.8965C45.3438 52.7676 45.0488 52.6621 44.752 52.5801C44.459 52.4941 44.1602 52.4512 43.8555 52.4512C43.5 52.4512 43.2285 52.5059 43.041 52.6152C42.8574 52.7246 42.7656 52.8809 42.7656 53.084C42.7656 53.2363 42.8105 53.3652 42.9004 53.4707C42.9902 53.5762 43.1445 53.6816 43.3633 53.7871C43.5859 53.8926 43.8945 54.0234 44.2891 54.1797C44.6758 54.3281 45.0098 54.4844 45.291 54.6484C45.5762 54.8086 45.7949 55.0059 45.9473 55.2402C46.0996 55.4746 46.1758 55.7773 46.1758 56.1484Z" fill="white"/>
<path d="M26 0C27.5471 0 29.0308 1.01724 30.1248 2.82794C31.2188 4.63863 31.8333 7.09446 31.8333 9.65517C31.8333 12.2159 31.2188 14.6717 30.1248 16.4824C29.0308 18.2931 27.5471 19.3103 26 19.3103C24.4529 19.3103 22.9692 18.2931 21.8752 16.4824C20.7812 14.6717 20.1667 12.2159 20.1667 9.65517C20.1667 7.09446 20.7812 4.63863 21.8752 2.82794C22.9692 1.01724 24.4529 0 26 0ZM14.3333 6.89655C15.2667 6.89655 16.1333 7.31035 16.8833 8.05517C16.6333 12 17.3333 15.9172 18.7667 18.9793C17.9333 21.6276 16.2667 23.4483 14.3333 23.4483C13.0073 23.4483 11.7355 22.5764 10.7978 21.0243C9.86012 19.4723 9.33333 17.3673 9.33333 15.1724C9.33333 12.9775 9.86012 10.8725 10.7978 9.32049C11.7355 7.76847 13.0073 6.89655 14.3333 6.89655ZM37.6667 6.89655C38.9927 6.89655 40.2645 7.76847 41.2022 9.32049C42.1399 10.8725 42.6667 12.9775 42.6667 15.1724C42.6667 17.3673 42.1399 19.4723 41.2022 21.0243C40.2645 22.5764 38.9927 23.4483 37.6667 23.4483C35.7333 23.4483 34.0667 21.6276 33.2333 18.9793C34.6667 15.9172 35.3667 12 35.1167 8.05517C35.8667 7.31035 36.7333 6.89655 37.6667 6.89655ZM15.1667 35.1724C15.1667 29.4621 20.0167 24.8276 26 24.8276C31.9833 24.8276 36.8333 29.4621 36.8333 35.1724V40H15.1667V35.1724ZM6 40V35.8621C6 32.0276 9.15 28.8 13.4167 27.8621C12.4333 29.7379 11.8333 32.331 11.8333 35.1724V40H6ZM46 40H40.1667V35.1724C40.1667 32.331 39.5667 29.7379 38.5833 27.8621C42.85 28.8 46 32.0276 46 35.8621V40Z" fill="white"/>
</svg>
