<svg width="32" height="32" viewBox="0 0 32 32" fill="none" xmlns="http://www.w3.org/2000/svg">
<path d="M23.4849 20.6852C23.4849 20.6856 23.4854 20.6858 23.4856 20.6855C25.4216 18.0427 26.2887 14.7664 25.9134 11.5118C25.5381 8.25676 23.9477 5.26352 21.4605 3.13088C18.9733 0.99824 15.7727 -0.11651 12.499 0.00964916C9.2253 0.135808 6.11994 1.49357 3.80419 3.8113C1.48844 6.12903 0.133092 9.2358 0.00929272 12.5101C-0.114506 15.7843 1.00238 18.9846 3.13649 21.4706C5.27061 23.9566 8.26457 25.5451 11.5194 25.9181C14.7738 26.2912 18.0491 25.4216 20.69 23.4834C20.6904 23.4832 20.6902 23.4827 20.6898 23.4827C20.6895 23.4827 20.6893 23.4831 20.6895 23.4834C20.7494 23.5631 20.8132 23.6389 20.885 23.7127L28.5847 31.4135C28.9597 31.7889 29.4684 31.9998 29.999 32C30.5295 32.0002 31.0383 31.7896 31.4136 31.4145C31.7889 31.0395 31.9998 30.5307 32 30.0001C32.0002 29.4695 31.7896 28.9606 31.4146 28.5852L23.7149 20.8844C23.6436 20.8122 23.5669 20.7455 23.4855 20.6849C23.4853 20.6847 23.4849 20.6849 23.4849 20.6852ZM24.0009 12.9976C24.0009 14.4423 23.7164 15.8729 23.1636 17.2076C22.6108 18.5423 21.8006 19.7551 20.7792 20.7766C19.7578 21.7982 18.5452 22.6085 17.2107 23.1614C15.8761 23.7142 14.4458 23.9988 13.0013 23.9988C11.5568 23.9988 10.1265 23.7142 8.79195 23.1614C7.45742 22.6085 6.24483 21.7982 5.22342 20.7766C4.20202 19.7551 3.3918 18.5423 2.83901 17.2076C2.28623 15.8729 2.00172 14.4423 2.00172 12.9976C2.00172 10.08 3.1606 7.28177 5.22343 5.21866C7.28625 3.15555 10.084 1.9965 13.0013 1.9965C15.9186 1.9965 18.7164 3.15555 20.7792 5.21866C22.842 7.28177 24.0009 10.08 24.0009 12.9976Z" fill="white"/>
</svg>
