<svg width="38" height="32" viewBox="0 0 38 32" fill="none" xmlns="http://www.w3.org/2000/svg">
<path fill-rule="evenodd" clip-rule="evenodd" d="M0.25 30.0625C0.25 29.6481 0.41462 29.2507 0.707646 28.9576C1.00067 28.6646 1.3981 28.5 1.8125 28.5H36.1875C36.6019 28.5 36.9993 28.6646 37.2924 28.9576C37.5854 29.2507 37.75 29.6481 37.75 30.0625C37.75 30.4769 37.5854 30.8743 37.2924 31.1674C36.9993 31.4604 36.6019 31.625 36.1875 31.625H1.8125C1.3981 31.625 1.00067 31.4604 0.707646 31.1674C0.41462 30.8743 0.25 30.4769 0.25 30.0625ZM0.25 20.6875C0.25 20.2731 0.41462 19.8757 0.707646 19.5826C1.00067 19.2896 1.3981 19.125 1.8125 19.125H36.1875C36.6019 19.125 36.9993 19.2896 37.2924 19.5826C37.5854 19.8757 37.75 20.2731 37.75 20.6875C37.75 21.1019 37.5854 21.4993 37.2924 21.7924C36.9993 22.0854 36.6019 22.25 36.1875 22.25H1.8125C1.3981 22.25 1.00067 22.0854 0.707646 21.7924C0.41462 21.4993 0.25 21.1019 0.25 20.6875ZM0.25 11.3125C0.25 10.8981 0.41462 10.5007 0.707646 10.2076C1.00067 9.91462 1.3981 9.75 1.8125 9.75H36.1875C36.6019 9.75 36.9993 9.91462 37.2924 10.2076C37.5854 10.5007 37.75 10.8981 37.75 11.3125C37.75 11.7269 37.5854 12.1243 37.2924 12.4174C36.9993 12.7104 36.6019 12.875 36.1875 12.875H1.8125C1.3981 12.875 1.00067 12.7104 0.707646 12.4174C0.41462 12.1243 0.25 11.7269 0.25 11.3125ZM0.25 1.9375C0.25 1.5231 0.41462 1.12567 0.707646 0.832646C1.00067 0.53962 1.3981 0.375 1.8125 0.375H36.1875C36.6019 0.375 36.9993 0.53962 37.2924 0.832646C37.5854 1.12567 37.75 1.5231 37.75 1.9375C37.75 2.3519 37.5854 2.74933 37.2924 3.04235C36.9993 3.33538 36.6019 3.5 36.1875 3.5H1.8125C1.3981 3.5 1.00067 3.33538 0.707646 3.04235C0.41462 2.74933 0.25 2.3519 0.25 1.9375Z" fill="#F2F9FB"/>
</svg>
