<svg width="50" height="50" viewBox="0 0 50 50" fill="none" xmlns="http://www.w3.org/2000/svg">
<path d="M19.1743 0C16.6317 0 14.1931 1.17063 12.3952 3.25437C10.5972 5.33811 9.58717 8.16426 9.58717 11.1111C9.58717 14.058 10.5972 16.8841 12.3952 18.9679C14.1931 21.0516 16.6317 22.2222 19.1743 22.2222C21.717 22.2222 24.1555 21.0516 25.9535 18.9679C27.7514 16.8841 28.7615 14.058 28.7615 11.1111C28.7615 8.16426 27.7514 5.33811 25.9535 3.25437C24.1555 1.17063 21.717 0 19.1743 0ZM35.9519 22.2222C35.6403 22.2222 35.3767 22.4722 35.3287 22.8056L34.8733 26.4722C34.1543 26.8333 33.4592 27.2778 32.8361 27.7778L29.864 26.3889C29.6004 26.3889 29.2888 26.3889 29.121 26.75L26.7242 31.5556C26.5804 31.8611 26.6284 32.2222 26.868 32.4444L29.4086 34.7222C29.3607 35.1944 29.3367 35.6389 29.3367 36.1111C29.3367 36.5833 29.3607 37.0278 29.4086 37.5L26.868 39.7778C26.6523 40 26.5804 40.3611 26.7242 40.6667L29.121 45.4722C29.2648 45.8333 29.5764 45.8333 29.864 45.8333L32.8361 44.4444C33.4592 44.9444 34.1303 45.4167 34.8733 45.75L35.3287 49.4167C35.3767 49.75 35.6163 50 35.9519 50H40.7455C41.0091 50 41.2728 49.75 41.3207 49.4167L41.7761 45.75C42.4951 45.3889 43.1423 44.9444 43.7894 44.4444L46.7374 45.8333C47.049 45.8333 47.3606 45.8333 47.5284 45.4722L49.9252 40.6667C50.069 40.3611 49.9971 40 49.7814 39.7778L47.2168 37.5C47.2647 37.0278 47.3127 36.5833 47.3127 36.1111C47.3127 35.6389 47.2887 35.1944 47.2168 34.7222L49.7574 32.4444C49.9731 32.2222 50.045 31.8611 49.9012 31.5556L47.5044 26.75C47.3606 26.3889 47.049 26.3889 46.7374 26.3889L43.7894 27.7778C43.1423 27.2778 42.4951 26.8056 41.7521 26.4722L41.2967 22.8056C41.2728 22.4722 41.0091 22.2222 40.7455 22.2222H35.9519ZM19.1743 27.7778C8.58052 27.7778 0 32.75 0 38.8889V44.4444H23.2009C22.1313 41.8411 21.5745 38.9946 21.5711 36.1111C21.576 33.3203 22.0992 30.5634 23.1051 28.0278C21.8348 27.8611 20.5165 27.7778 19.1743 27.7778ZM38.3487 31.9444C40.338 31.9444 41.9439 33.8056 41.9439 36.1111C41.9439 38.4167 40.338 40.2778 38.3487 40.2778C36.3354 40.2778 34.7535 38.4167 34.7535 36.1111C34.7535 33.8056 36.3593 31.9444 38.3487 31.9444Z" fill="white"/>
</svg>
