<svg width="40" height="40" viewBox="0 0 40 40" fill="none" xmlns="http://www.w3.org/2000/svg">
<path d="M15.3395 0C13.3053 0 11.3545 0.936505 9.91615 2.60349C8.47779 4.27049 7.66974 6.53141 7.66974 8.88889C7.66974 11.2464 8.47779 13.5073 9.91615 15.1743C11.3545 16.8413 13.3053 17.7778 15.3395 17.7778C17.3736 17.7778 19.3244 16.8413 20.7628 15.1743C22.2011 13.5073 23.0092 11.2464 23.0092 8.88889C23.0092 6.53141 22.2011 4.27049 20.7628 2.60349C19.3244 0.936505 17.3736 0 15.3395 0ZM28.7615 17.7778C28.5122 17.7778 28.3013 17.9778 28.263 18.2444L27.8987 21.1778C27.3234 21.4667 26.7674 21.8222 26.2688 22.2222L23.8912 21.1111C23.6803 21.1111 23.431 21.1111 23.2968 21.4L21.3794 25.2444C21.2643 25.4889 21.3027 25.7778 21.4944 25.9556L23.5269 27.7778C23.4886 28.1556 23.4694 28.5111 23.4694 28.8889C23.4694 29.2667 23.4886 29.6222 23.5269 30L21.4944 31.8222C21.3219 32 21.2643 32.2889 21.3794 32.5333L23.2968 36.3778C23.4119 36.6667 23.6611 36.6667 23.8912 36.6667L26.2688 35.5556C26.7674 35.9556 27.3043 36.3333 27.8987 36.6L28.263 39.5333C28.3013 39.8 28.4931 40 28.7615 40H32.5964C32.8073 40 33.0182 39.8 33.0566 39.5333L33.4209 36.6C33.9961 36.3111 34.5138 35.9556 35.0315 35.5556L37.39 36.6667C37.6392 36.6667 37.8885 36.6667 38.0227 36.3778L39.9401 32.5333C40.0552 32.2889 39.9977 32 39.8251 31.8222L37.7734 30C37.8118 29.6222 37.8501 29.2667 37.8501 28.8889C37.8501 28.5111 37.831 28.1556 37.7734 27.7778L39.8059 25.9556C39.9785 25.7778 40.036 25.4889 39.921 25.2444L38.0035 21.4C37.8885 21.1111 37.6392 21.1111 37.39 21.1111L35.0315 22.2222C34.5138 21.8222 33.9961 21.4444 33.4017 21.1778L33.0374 18.2444C33.0182 17.9778 32.8073 17.7778 32.5964 17.7778H28.7615ZM15.3395 22.2222C6.86441 22.2222 0 26.2 0 31.1111V35.5556H18.5608C17.705 33.4729 17.2596 31.1957 17.2569 28.8889C17.2608 26.6562 17.6793 24.4507 18.4841 22.4222C17.4678 22.2889 16.4132 22.2222 15.3395 22.2222ZM30.6789 25.5556C32.2704 25.5556 33.5551 27.0444 33.5551 28.8889C33.5551 30.7333 32.2704 32.2222 30.6789 32.2222C29.0683 32.2222 27.8028 30.7333 27.8028 28.8889C27.8028 27.0444 29.0875 25.5556 30.6789 25.5556Z" fill="white"/>
</svg>
