<svg width="38" height="44" viewBox="0 0 38 44" fill="none" xmlns="http://www.w3.org/2000/svg">
<path d="M37.75 35.5837V37.667H0.25V35.5837L4.41667 31.417V18.917C4.41667 12.4587 8.64583 6.77116 14.8333 4.93783C14.8333 4.72949 14.8333 4.54199 14.8333 4.33366C14.8333 3.22859 15.2723 2.16878 16.0537 1.38738C16.8351 0.605979 17.8949 0.166992 19 0.166992C20.1051 0.166992 21.1649 0.605979 21.9463 1.38738C22.7277 2.16878 23.1667 3.22859 23.1667 4.33366C23.1667 4.54199 23.1667 4.72949 23.1667 4.93783C29.3542 6.77116 33.5833 12.4587 33.5833 18.917V31.417L37.75 35.5837ZM23.1667 39.7503C23.1667 40.8554 22.7277 41.9152 21.9463 42.6966C21.1649 43.478 20.1051 43.917 19 43.917C17.8949 43.917 16.8351 43.478 16.0537 42.6966C15.2723 41.9152 14.8333 40.8554 14.8333 39.7503" fill="white"/>
</svg>
