<svg width="41" height="46" viewBox="0 0 41 46" fill="none" xmlns="http://www.w3.org/2000/svg">
<path d="M40.25 36.5126V38.6554H0.25V36.5126L4.69444 32.2268V19.3697C4.69444 12.7268 9.20556 6.87684 15.8056 4.99113C15.8056 4.77684 15.8056 4.58398 15.8056 4.3697C15.8056 3.23306 16.2738 2.14297 17.1073 1.33924C17.9408 0.535514 19.0713 0.0839844 20.25 0.0839844C21.4287 0.0839844 22.5592 0.535514 23.3927 1.33924C24.2262 2.14297 24.6944 3.23306 24.6944 4.3697C24.6944 4.58398 24.6944 4.77684 24.6944 4.99113C31.2944 6.87684 35.8056 12.7268 35.8056 19.3697V32.2268L40.25 36.5126ZM24.6944 40.7983C24.6944 41.9349 24.2262 43.025 23.3927 43.8287C22.5592 44.6325 21.4287 45.084 20.25 45.084C19.0713 45.084 17.9408 44.6325 17.1073 43.8287C16.2738 43.025 15.8056 41.9349 15.8056 40.7983" fill="white"/>
</svg>
