<svg width="51" height="39" viewBox="0 0 51 39" fill="none" xmlns="http://www.w3.org/2000/svg">
<path d="M25.8906 0.517578C27.8245 0.517578 29.6792 1.47124 31.0466 3.16877C32.4141 4.86629 33.1823 7.16864 33.1823 9.5693C33.1823 11.97 32.4141 14.2723 31.0466 15.9698C29.6792 17.6674 27.8245 18.621 25.8906 18.621C23.9568 18.621 22.1021 17.6674 20.7346 15.9698C19.3672 14.2723 18.599 11.97 18.599 9.5693C18.599 7.16864 19.3672 4.86629 20.7346 3.16877C22.1021 1.47124 23.9568 0.517578 25.8906 0.517578M11.3073 6.9831C12.474 6.9831 13.5573 7.37103 14.4948 8.0693C14.1823 11.7676 15.0573 15.44 16.849 18.3107C15.8073 20.7934 13.724 22.5003 11.3073 22.5003C9.64969 22.5003 8.05998 21.6829 6.88787 20.2279C5.71577 18.7729 5.05729 16.7994 5.05729 14.7417C5.05729 12.684 5.71577 10.7106 6.88787 9.25554C8.05998 7.80052 9.64969 6.9831 11.3073 6.9831M40.474 6.9831C42.1316 6.9831 43.7213 7.80052 44.8934 9.25554C46.0655 10.7106 46.724 12.684 46.724 14.7417C46.724 16.7994 46.0655 18.7729 44.8934 20.2279C43.7213 21.6829 42.1316 22.5003 40.474 22.5003C38.0573 22.5003 35.974 20.7934 34.9323 18.3107C36.724 15.44 37.599 11.7676 37.2865 8.0693C38.224 7.37103 39.3073 6.9831 40.474 6.9831ZM12.349 33.4917C12.349 28.1383 18.4115 23.7934 25.8906 23.7934C33.3698 23.7934 39.4323 28.1383 39.4323 33.4917V38.0176H12.349V33.4917ZM0.890625 38.0176V34.1383C0.890625 30.5434 4.82812 27.5176 10.1615 26.6383C8.93229 28.3969 8.18229 30.8279 8.18229 33.4917V38.0176H0.890625ZM50.8906 38.0176H43.599V33.4917C43.599 30.8279 42.849 28.3969 41.6198 26.6383C46.9531 27.5176 50.8906 30.5434 50.8906 34.1383V38.0176Z" fill="white"/>
</svg>
