<svg width="46" height="46" viewBox="0 0 46 46" fill="none" xmlns="http://www.w3.org/2000/svg">
<rect x="1" y="1" width="44" height="44" rx="22" stroke="#007BC4" stroke-width="2"/>
<path fill-rule="evenodd" clip-rule="evenodd" d="M34 22.5C34 22.8599 33.8552 23.205 33.5973 23.4595C33.3395 23.7139 32.9898 23.8569 32.6252 23.8569H16.6962L22.5998 29.6807C22.7276 29.8069 22.829 29.9566 22.8982 30.1215C22.9674 30.2863 23.003 30.463 23.003 30.6414C23.003 30.8198 22.9674 30.9965 22.8982 31.1613C22.829 31.3261 22.7276 31.4759 22.5998 31.6021C22.4719 31.7282 22.3202 31.8283 22.1532 31.8966C21.9862 31.9649 21.8072 32 21.6264 32C21.4456 32 21.2666 31.9649 21.0996 31.8966C20.9326 31.8283 20.7808 31.7282 20.653 31.6021L12.4039 23.4607C12.2759 23.3346 12.1743 23.1849 12.105 23.0201C12.0357 22.8552 12 22.6785 12 22.5C12 22.3215 12.0357 22.1448 12.105 21.9799C12.1743 21.8151 12.2759 21.6654 12.4039 21.5393L20.653 13.3979C20.9112 13.1431 21.2613 13 21.6264 13C21.9915 13 22.3416 13.1431 22.5998 13.3979C22.8579 13.6527 23.003 13.9983 23.003 14.3586C23.003 14.7189 22.8579 15.0645 22.5998 15.3193L16.6962 21.1431H32.6252C32.9898 21.1431 33.3395 21.2861 33.5973 21.5405C33.8552 21.795 34 22.1401 34 22.5Z" fill="#007BC4"/>
</svg>
