<svg width="50" height="40" viewBox="0 0 50 40" fill="none" xmlns="http://www.w3.org/2000/svg">
<path fill-rule="evenodd" clip-rule="evenodd" d="M0 37.1429C0 36.3851 0.219494 35.6584 0.610195 35.1226C1.0009 34.5867 1.5308 34.2857 2.08333 34.2857H47.9167C48.4692 34.2857 48.9991 34.5867 49.3898 35.1226C49.7805 35.6584 50 36.3851 50 37.1429C50 37.9006 49.7805 38.6273 49.3898 39.1632C48.9991 39.699 48.4692 40 47.9167 40H2.08333C1.5308 40 1.0009 39.699 0.610195 39.1632C0.219494 38.6273 0 37.9006 0 37.1429ZM0 20C0 19.2422 0.219494 18.5155 0.610195 17.9797C1.0009 17.4439 1.5308 17.1429 2.08333 17.1429H47.9167C48.4692 17.1429 48.9991 17.4439 49.3898 17.9797C49.7805 18.5155 50 19.2422 50 20C50 20.7578 49.7805 21.4845 49.3898 22.0203C48.9991 22.5561 48.4692 22.8571 47.9167 22.8571H2.08333C1.5308 22.8571 1.0009 22.5561 0.610195 22.0203C0.219494 21.4845 0 20.7578 0 20ZM0 2.85714C0 2.09938 0.219494 1.37266 0.610195 0.836838C1.0009 0.30102 1.5308 0 2.08333 0H47.9167C48.4692 0 48.9991 0.30102 49.3898 0.836838C49.7805 1.37266 50 2.09938 50 2.85714C50 3.6149 49.7805 4.34163 49.3898 4.87745C48.9991 5.41327 48.4692 5.71429 47.9167 5.71429H2.08333C1.5308 5.71429 1.0009 5.41327 0.610195 4.87745C0.219494 4.34163 0 3.6149 0 2.85714Z" fill="#F2F9FB"/>
</svg>
