<svg width="51" height="47" viewBox="0 0 51 47" fill="none" xmlns="http://www.w3.org/2000/svg">
<path d="M30.1642 13.003H26.5928V25.7344L36.7833 32.202L38.4976 29.121L30.1642 23.8247V13.003ZM28.9738 0.271484C23.2906 0.271484 17.8401 2.68591 13.8215 6.98362C9.80285 11.2813 7.5452 17.1103 7.5452 23.1882H0.402344L9.83092 33.4497L19.45 23.1882H12.3071C12.3071 18.4609 14.0631 13.9273 17.1887 10.5846C20.3143 7.24196 24.5535 5.36408 28.9738 5.36408C33.394 5.36408 37.6333 7.24196 40.7589 10.5846C43.8845 13.9273 45.6404 18.4609 45.6404 23.1882C45.6404 27.9154 43.8845 32.449 40.7589 35.7917C37.6333 39.1343 33.394 41.0122 28.9738 41.0122C24.3785 41.0122 20.2119 39.0007 17.2119 35.7669L13.8309 39.3826C17.7119 43.5585 23.0214 46.1048 28.9738 46.1048C34.657 46.1048 40.1074 43.6904 44.1261 39.3927C48.1447 35.095 50.4023 29.266 50.4023 23.1882C50.4023 17.1103 48.1447 11.2813 44.1261 6.98362C40.1074 2.68591 34.657 0.271484 28.9738 0.271484Z" fill="white"/>
</svg>
