<svg width="51" height="64" viewBox="0 0 51 64" fill="none" xmlns="http://www.w3.org/2000/svg">
<path d="M8.8125 59H7.41211V55.1328H3.46289V59H2.05664V50.4336H3.46289V53.9375H7.41211V50.4336H8.8125V59ZM12.3164 52.5137V59H10.9395V52.5137H12.3164ZM11.6367 50.0293C11.8477 50.0293 12.0293 50.0859 12.1816 50.1992C12.3379 50.3125 12.416 50.5078 12.416 50.7852C12.416 51.0586 12.3379 51.2539 12.1816 51.3711C12.0293 51.4844 11.8477 51.541 11.6367 51.541C11.418 51.541 11.2324 51.4844 11.0801 51.3711C10.9316 51.2539 10.8574 51.0586 10.8574 50.7852C10.8574 50.5078 10.9316 50.3125 11.0801 50.1992C11.2324 50.0859 11.418 50.0293 11.6367 50.0293ZM18.6504 57.1484C18.6504 57.5742 18.5469 57.9336 18.3398 58.2266C18.1328 58.5195 17.8301 58.7422 17.4316 58.8945C17.0371 59.043 16.5527 59.1172 15.9785 59.1172C15.5254 59.1172 15.1348 59.084 14.8066 59.0176C14.4824 58.9551 14.1758 58.8574 13.8867 58.7246V57.5352C14.1953 57.6797 14.541 57.8047 14.9238 57.9102C15.3105 58.0156 15.6758 58.0684 16.0195 58.0684C16.4727 58.0684 16.7988 57.998 16.998 57.8574C17.1973 57.7129 17.2969 57.5215 17.2969 57.2832C17.2969 57.1426 17.2559 57.0176 17.1738 56.9082C17.0957 56.7949 16.9473 56.6797 16.7285 56.5625C16.5137 56.4414 16.1973 56.2969 15.7793 56.1289C15.3691 55.9648 15.0234 55.8008 14.7422 55.6367C14.4609 55.4727 14.248 55.2754 14.1035 55.0449C13.959 54.8105 13.8867 54.5117 13.8867 54.1484C13.8867 53.5742 14.1133 53.1387 14.5664 52.8418C15.0234 52.541 15.627 52.3906 16.377 52.3906C16.7754 52.3906 17.1504 52.4316 17.502 52.5137C17.8574 52.5918 18.2051 52.707 18.5449 52.8594L18.1113 53.8965C17.8184 53.7676 17.5234 53.6621 17.2266 53.5801C16.9336 53.4941 16.6348 53.4512 16.3301 53.4512C15.9746 53.4512 15.7031 53.5059 15.5156 53.6152C15.332 53.7246 15.2402 53.8809 15.2402 54.084C15.2402 54.2363 15.2852 54.3652 15.375 54.4707C15.4648 54.5762 15.6191 54.6816 15.8379 54.7871C16.0605 54.8926 16.3691 55.0234 16.7637 55.1797C17.1504 55.3281 17.4844 55.4844 17.7656 55.6484C18.0508 55.8086 18.2695 56.0059 18.4219 56.2402C18.5742 56.4746 18.6504 56.7773 18.6504 57.1484ZM22.5527 58.0039C22.7324 58.0039 22.9102 57.9883 23.0859 57.957C23.2617 57.9219 23.4219 57.8809 23.5664 57.834V58.877C23.4141 58.9434 23.2168 59 22.9746 59.0469C22.7324 59.0938 22.4805 59.1172 22.2188 59.1172C21.8516 59.1172 21.5215 59.0566 21.2285 58.9355C20.9355 58.8105 20.7031 58.5977 20.5312 58.2969C20.3594 57.9961 20.2734 57.5801 20.2734 57.0488V53.5625H19.3887V52.9473L20.3379 52.4609L20.7891 51.0723H21.6562V52.5137H23.5137V53.5625H21.6562V57.0312C21.6562 57.3594 21.7383 57.6035 21.9023 57.7637C22.0664 57.9238 22.2832 58.0039 22.5527 58.0039ZM30.627 55.7422C30.627 56.2812 30.5566 56.7598 30.416 57.1777C30.2754 57.5957 30.0703 57.9492 29.8008 58.2383C29.5312 58.5234 29.207 58.7422 28.8281 58.8945C28.4492 59.043 28.0215 59.1172 27.5449 59.1172C27.0996 59.1172 26.6914 59.043 26.3203 58.8945C25.9492 58.7422 25.627 58.5234 25.3535 58.2383C25.084 57.9492 24.875 57.5957 24.7266 57.1777C24.5781 56.7598 24.5039 56.2812 24.5039 55.7422C24.5039 55.0273 24.627 54.4219 24.873 53.9258C25.123 53.4258 25.4785 53.0449 25.9395 52.7832C26.4004 52.5215 26.9492 52.3906 27.5859 52.3906C28.1836 52.3906 28.7109 52.5215 29.168 52.7832C29.625 53.0449 29.9824 53.4258 30.2402 53.9258C30.498 54.4258 30.627 55.0312 30.627 55.7422ZM25.9219 55.7422C25.9219 56.2148 25.9785 56.6191 26.0918 56.9551C26.209 57.291 26.3887 57.5488 26.6309 57.7285C26.873 57.9043 27.1855 57.9922 27.5684 57.9922C27.9512 57.9922 28.2637 57.9043 28.5059 57.7285C28.748 57.5488 28.9258 57.291 29.0391 56.9551C29.1523 56.6191 29.209 56.2148 29.209 55.7422C29.209 55.2695 29.1523 54.8691 29.0391 54.541C28.9258 54.209 28.748 53.957 28.5059 53.7852C28.2637 53.6094 27.9492 53.5215 27.5625 53.5215C26.9922 53.5215 26.5762 53.7129 26.3145 54.0957C26.0527 54.4785 25.9219 55.0273 25.9219 55.7422ZM35.4961 52.3906C35.6055 52.3906 35.7246 52.3965 35.8535 52.4082C35.9824 52.4199 36.0938 52.4355 36.1875 52.4551L36.0586 53.7441C35.9766 53.7207 35.875 53.7031 35.7539 53.6914C35.6367 53.6797 35.5312 53.6738 35.4375 53.6738C35.1914 53.6738 34.957 53.7148 34.7344 53.7969C34.5117 53.875 34.3145 53.9961 34.1426 54.1602C33.9707 54.3203 33.8359 54.5215 33.7383 54.7637C33.6406 55.0059 33.5918 55.2871 33.5918 55.6074V59H32.209V52.5137H33.2871L33.4746 53.6562H33.5391C33.668 53.4258 33.8281 53.2148 34.0195 53.0234C34.2109 52.832 34.4297 52.6797 34.6758 52.5664C34.9258 52.4492 35.1992 52.3906 35.4961 52.3906ZM38.7656 52.5137V59H37.3887V52.5137H38.7656ZM38.0859 50.0293C38.2969 50.0293 38.4785 50.0859 38.6309 50.1992C38.7871 50.3125 38.8652 50.5078 38.8652 50.7852C38.8652 51.0586 38.7871 51.2539 38.6309 51.3711C38.4785 51.4844 38.2969 51.541 38.0859 51.541C37.8672 51.541 37.6816 51.4844 37.5293 51.3711C37.3809 51.2539 37.3066 51.0586 37.3066 50.7852C37.3066 50.5078 37.3809 50.3125 37.5293 50.1992C37.6816 50.0859 37.8672 50.0293 38.0859 50.0293ZM43.2832 52.3906C44.1035 52.3906 44.7227 52.5723 45.1406 52.9355C45.5625 53.2988 45.7734 53.8652 45.7734 54.6348V59H44.7949L44.5312 58.0801H44.4844C44.3008 58.3145 44.1113 58.5078 43.916 58.6602C43.7207 58.8125 43.4941 58.9258 43.2363 59C42.9824 59.0781 42.6719 59.1172 42.3047 59.1172C41.918 59.1172 41.5723 59.0469 41.2676 58.9062C40.9629 58.7617 40.7227 58.543 40.5469 58.25C40.3711 57.957 40.2832 57.5859 40.2832 57.1367C40.2832 56.4688 40.5312 55.9668 41.0273 55.6309C41.5273 55.2949 42.2812 55.1094 43.2891 55.0742L44.4141 55.0332V54.6934C44.4141 54.2441 44.3086 53.9238 44.0977 53.7324C43.8906 53.541 43.5977 53.4453 43.2188 53.4453C42.8945 53.4453 42.5801 53.4922 42.2754 53.5859C41.9707 53.6797 41.6738 53.7949 41.3848 53.9316L40.9395 52.959C41.2559 52.791 41.6152 52.6543 42.0176 52.5488C42.4238 52.4434 42.8457 52.3906 43.2832 52.3906ZM44.4082 55.9004L43.5703 55.9297C42.8828 55.9531 42.4004 56.0703 42.123 56.2812C41.8457 56.4922 41.707 56.7812 41.707 57.1484C41.707 57.4688 41.8027 57.7031 41.9941 57.8516C42.1855 57.9961 42.4375 58.0684 42.75 58.0684C43.2266 58.0684 43.6211 57.9336 43.9336 57.6641C44.25 57.3906 44.4082 56.9902 44.4082 56.4629V55.9004ZM49.084 59H47.7012V49.8828H49.084V59Z" fill="white"/>
<path d="M28.7857 12.5H25.5714V25L34.7429 31.35L36.2857 28.325L28.7857 23.125V12.5ZM27.7143 0C22.5994 0 17.694 2.37053 14.0772 6.5901C10.4605 10.8097 8.42857 16.5326 8.42857 22.5H2L10.4857 32.575L19.1429 22.5H12.7143C12.7143 17.8587 14.2946 13.4075 17.1077 10.1256C19.9207 6.84374 23.736 5 27.7143 5C31.6925 5 35.5078 6.84374 38.3209 10.1256C41.1339 13.4075 42.7143 17.8587 42.7143 22.5C42.7143 27.1413 41.1339 31.5925 38.3209 34.8744C35.5078 38.1563 31.6925 40 27.7143 40C23.5786 40 19.8286 38.025 17.1286 34.85L14.0857 38.4C17.5786 42.5 22.3571 45 27.7143 45C32.8292 45 37.7346 42.6295 41.3513 38.4099C44.9681 34.1903 47 28.4674 47 22.5C47 16.5326 44.9681 10.8097 41.3513 6.5901C37.7346 2.37053 32.8292 0 27.7143 0Z" fill="white"/>
</svg>
