<svg width="50" height="50" viewBox="0 0 50 50" fill="none" xmlns="http://www.w3.org/2000/svg">
<path d="M36.1111 37.5V30H16.6667V20H36.1111V12.5L50 25L36.1111 37.5ZM30.5556 0C32.029 0 33.4421 0.526784 34.4839 1.46447C35.5258 2.40215 36.1111 3.67392 36.1111 5V10H30.5556V5H5.55556V45H30.5556V40H36.1111V45C36.1111 46.3261 35.5258 47.5979 34.4839 48.5355C33.4421 49.4732 32.029 50 30.5556 50H5.55556C4.08213 50 2.66905 49.4732 1.62718 48.5355C0.585316 47.5979 0 46.3261 0 45V5C0 3.67392 0.585316 2.40215 1.62718 1.46447C2.66905 0.526784 4.08213 0 5.55556 0H30.5556Z" fill="white"/>
</svg>
