<svg width="40" height="41" viewBox="0 0 40 41" fill="none" xmlns="http://www.w3.org/2000/svg">
<path d="M28.8889 30.4902V24.4902H13.3333V16.4902H28.8889V10.4902L40 20.4902L28.8889 30.4902ZM24.4444 0.490234C25.6232 0.490234 26.7536 0.911662 27.5871 1.66181C28.4206 2.41195 28.8889 3.42937 28.8889 4.49023V8.49023H24.4444V4.49023H4.44444V36.4902H24.4444V32.4902H28.8889V36.4902C28.8889 37.5511 28.4206 38.5685 27.5871 39.3187C26.7536 40.0688 25.6232 40.4902 24.4444 40.4902H4.44444C3.2657 40.4902 2.13524 40.0688 1.30175 39.3187C0.468252 38.5685 0 37.5511 0 36.4902V4.49023C0 3.42937 0.468252 2.41195 1.30175 1.66181C2.13524 0.911662 3.2657 0.490234 4.44444 0.490234H24.4444Z" fill="white"/>
</svg>
