<svg width="63" height="66" viewBox="0 0 63 66" fill="none" xmlns="http://www.w3.org/2000/svg">
<path d="M12.6035 53.4336C13.709 53.4336 14.5156 53.6602 15.0234 54.1133C15.5312 54.5664 15.7852 55.2012 15.7852 56.0176C15.7852 56.3887 15.7266 56.7422 15.6094 57.0781C15.4961 57.4102 15.3086 57.7051 15.0469 57.9629C14.7852 58.2168 14.4395 58.418 14.0098 58.5664C13.584 58.7148 13.0586 58.7891 12.4336 58.7891H11.5195V62H10.1133V53.4336H12.6035ZM12.5098 54.5996H11.5195V57.6172H12.2871C12.7285 57.6172 13.1035 57.5664 13.4121 57.4648C13.7207 57.3594 13.9551 57.1934 14.1152 56.9668C14.2754 56.7402 14.3555 56.4414 14.3555 56.0703C14.3555 55.5742 14.2051 55.2051 13.9043 54.9629C13.6074 54.7207 13.1426 54.5996 12.5098 54.5996ZM23.0098 55.5137V62H21.9258L21.7383 61.127H21.6621C21.5254 61.3496 21.3516 61.5352 21.1406 61.6836C20.9297 61.8281 20.6953 61.9355 20.4375 62.0059C20.1797 62.0801 19.9082 62.1172 19.623 62.1172C19.1348 62.1172 18.7168 62.0352 18.3691 61.8711C18.0254 61.7031 17.7617 61.4453 17.5781 61.0977C17.3945 60.75 17.3027 60.3008 17.3027 59.75V55.5137H18.6855V59.4922C18.6855 59.9961 18.7871 60.373 18.9902 60.623C19.1973 60.873 19.5176 60.998 19.9512 60.998C20.3691 60.998 20.7012 60.9121 20.9473 60.7402C21.1934 60.5684 21.3672 60.3145 21.4688 59.9785C21.5742 59.6426 21.627 59.2305 21.627 58.7422V55.5137H23.0098ZM27.5684 55.3906C28.1465 55.3906 28.6426 55.5098 29.0566 55.748C29.4707 55.9863 29.7891 56.3242 30.0117 56.7617C30.2344 57.1992 30.3457 57.7227 30.3457 58.332V59.0703H26.0156C26.0312 59.6992 26.1992 60.1836 26.5195 60.5234C26.8438 60.8633 27.2969 61.0332 27.8789 61.0332C28.293 61.0332 28.6641 60.9941 28.9922 60.916C29.3242 60.834 29.666 60.7148 30.0176 60.5586V61.6777C29.6934 61.8301 29.3633 61.9414 29.0273 62.0117C28.6914 62.082 28.2891 62.1172 27.8203 62.1172C27.1836 62.1172 26.623 61.9941 26.1387 61.748C25.6582 61.498 25.2812 61.127 25.0078 60.6348C24.7383 60.1426 24.6035 59.5312 24.6035 58.8008C24.6035 58.0742 24.7266 57.457 24.9727 56.9492C25.2188 56.4414 25.5645 56.0547 26.0098 55.7891C26.4551 55.5234 26.9746 55.3906 27.5684 55.3906ZM27.5684 56.4277C27.1348 56.4277 26.7832 56.5684 26.5137 56.8496C26.248 57.1309 26.0918 57.543 26.0449 58.0859H28.998C28.9941 57.7617 28.9395 57.4746 28.834 57.2246C28.7324 56.9746 28.5762 56.7793 28.3652 56.6387C28.1582 56.498 27.8926 56.4277 27.5684 56.4277ZM35.1855 55.3906C35.2949 55.3906 35.4141 55.3965 35.543 55.4082C35.6719 55.4199 35.7832 55.4355 35.877 55.4551L35.748 56.7441C35.666 56.7207 35.5645 56.7031 35.4434 56.6914C35.3262 56.6797 35.2207 56.6738 35.127 56.6738C34.8809 56.6738 34.6465 56.7148 34.4238 56.7969C34.2012 56.875 34.0039 56.9961 33.832 57.1602C33.6602 57.3203 33.5254 57.5215 33.4277 57.7637C33.3301 58.0059 33.2812 58.2871 33.2812 58.6074V62H31.8984V55.5137H32.9766L33.1641 56.6562H33.2285C33.3574 56.4258 33.5176 56.2148 33.709 56.0234C33.9004 55.832 34.1191 55.6797 34.3652 55.5664C34.6152 55.4492 34.8887 55.3906 35.1855 55.3906ZM39.4922 61.0039C39.6719 61.0039 39.8496 60.9883 40.0254 60.957C40.2012 60.9219 40.3613 60.8809 40.5059 60.834V61.877C40.3535 61.9434 40.1562 62 39.9141 62.0469C39.6719 62.0938 39.4199 62.1172 39.1582 62.1172C38.791 62.1172 38.4609 62.0566 38.168 61.9355C37.875 61.8105 37.6426 61.5977 37.4707 61.2969C37.2988 60.9961 37.2129 60.5801 37.2129 60.0488V56.5625H36.3281V55.9473L37.2773 55.4609L37.7285 54.0723H38.5957V55.5137H40.4531V56.5625H38.5957V60.0312C38.5957 60.3594 38.6777 60.6035 38.8418 60.7637C39.0059 60.9238 39.2227 61.0039 39.4922 61.0039ZM47.5664 58.7422C47.5664 59.2812 47.4961 59.7598 47.3555 60.1777C47.2148 60.5957 47.0098 60.9492 46.7402 61.2383C46.4707 61.5234 46.1465 61.7422 45.7676 61.8945C45.3887 62.043 44.9609 62.1172 44.4844 62.1172C44.0391 62.1172 43.6309 62.043 43.2598 61.8945C42.8887 61.7422 42.5664 61.5234 42.293 61.2383C42.0234 60.9492 41.8145 60.5957 41.666 60.1777C41.5176 59.7598 41.4434 59.2812 41.4434 58.7422C41.4434 58.0273 41.5664 57.4219 41.8125 56.9258C42.0625 56.4258 42.418 56.0449 42.8789 55.7832C43.3398 55.5215 43.8887 55.3906 44.5254 55.3906C45.123 55.3906 45.6504 55.5215 46.1074 55.7832C46.5645 56.0449 46.9219 56.4258 47.1797 56.9258C47.4375 57.4258 47.5664 58.0312 47.5664 58.7422ZM42.8613 58.7422C42.8613 59.2148 42.918 59.6191 43.0312 59.9551C43.1484 60.291 43.3281 60.5488 43.5703 60.7285C43.8125 60.9043 44.125 60.9922 44.5078 60.9922C44.8906 60.9922 45.2031 60.9043 45.4453 60.7285C45.6875 60.5488 45.8652 60.291 45.9785 59.9551C46.0918 59.6191 46.1484 59.2148 46.1484 58.7422C46.1484 58.2695 46.0918 57.8691 45.9785 57.541C45.8652 57.209 45.6875 56.957 45.4453 56.7852C45.2031 56.6094 44.8887 56.5215 44.502 56.5215C43.9316 56.5215 43.5156 56.7129 43.2539 57.0957C42.9922 57.4785 42.8613 58.0273 42.8613 58.7422ZM53.5078 60.1484C53.5078 60.5742 53.4043 60.9336 53.1973 61.2266C52.9902 61.5195 52.6875 61.7422 52.2891 61.8945C51.8945 62.043 51.4102 62.1172 50.8359 62.1172C50.3828 62.1172 49.9922 62.084 49.6641 62.0176C49.3398 61.9551 49.0332 61.8574 48.7441 61.7246V60.5352C49.0527 60.6797 49.3984 60.8047 49.7812 60.9102C50.168 61.0156 50.5332 61.0684 50.877 61.0684C51.3301 61.0684 51.6562 60.998 51.8555 60.8574C52.0547 60.7129 52.1543 60.5215 52.1543 60.2832C52.1543 60.1426 52.1133 60.0176 52.0312 59.9082C51.9531 59.7949 51.8047 59.6797 51.5859 59.5625C51.3711 59.4414 51.0547 59.2969 50.6367 59.1289C50.2266 58.9648 49.8809 58.8008 49.5996 58.6367C49.3184 58.4727 49.1055 58.2754 48.9609 58.0449C48.8164 57.8105 48.7441 57.5117 48.7441 57.1484C48.7441 56.5742 48.9707 56.1387 49.4238 55.8418C49.8809 55.541 50.4844 55.3906 51.2344 55.3906C51.6328 55.3906 52.0078 55.4316 52.3594 55.5137C52.7148 55.5918 53.0625 55.707 53.4023 55.8594L52.9688 56.8965C52.6758 56.7676 52.3809 56.6621 52.084 56.5801C51.791 56.4941 51.4922 56.4512 51.1875 56.4512C50.832 56.4512 50.5605 56.5059 50.373 56.6152C50.1895 56.7246 50.0977 56.8809 50.0977 57.084C50.0977 57.2363 50.1426 57.3652 50.2324 57.4707C50.3223 57.5762 50.4766 57.6816 50.6953 57.7871C50.918 57.8926 51.2266 58.0234 51.6211 58.1797C52.0078 58.3281 52.3418 58.4844 52.623 58.6484C52.9082 58.8086 53.127 59.0059 53.2793 59.2402C53.4316 59.4746 53.5078 59.7773 53.5078 60.1484Z" fill="white"/>
<path d="M32 0C30.0109 0 28.1032 0.711159 26.6967 1.97703C25.2902 3.2429 24.5 4.95979 24.5 6.75C24.4992 8.14647 24.9796 9.50879 25.8751 10.6492C26.7706 11.7896 28.0371 12.652 29.5 13.1175V15.75H22V20.25H29.5V40.32C27.65 40.0275 25.75 39.555 23.975 38.8575C22.125 38.1375 20.5 37.26 19.05 36.2025C17.6 35.145 16.45 33.9975 15.6 32.7375L19.5 29.25L9.5 22.5V29.25C9.5 31.4325 10.175 33.48 11.55 35.37C12.925 37.26 14.725 38.9475 17 40.3875C19.175 41.8275 21.6 42.9525 24.2 43.7625C26.825 44.5725 29.425 45 32 45C34.575 45 37.175 44.55 39.8 43.74C42.4 42.93 44.825 41.805 47 40.3875C49.3 38.9475 51.075 37.2825 52.45 35.37C53.825 33.48 54.5 31.4325 54.5 29.25V22.5L44.5 29.25L48.4 32.7375C47.55 33.9975 46.4 35.145 44.95 36.2025C43.5 37.26 41.875 38.1375 40.025 38.8575C38.25 39.555 36.35 40.0275 34.5 40.32V20.25H42V15.75H34.5V13.095C35.9589 12.6308 37.2225 11.7718 38.1177 10.6359C39.0128 9.49995 39.4957 8.14262 39.5 6.75C39.5 4.95979 38.7098 3.2429 37.3033 1.97703C35.8968 0.711159 33.9891 0 32 0ZM32 4.5C32.663 4.5 33.2989 4.73705 33.7678 5.15901C34.2366 5.58097 34.5 6.15326 34.5 6.75C34.5 7.34674 34.2366 7.91903 33.7678 8.34099C33.2989 8.76295 32.663 9 32 9C31.337 9 30.7011 8.76295 30.2322 8.34099C29.7634 7.91903 29.5 7.34674 29.5 6.75C29.5 6.15326 29.7634 5.58097 30.2322 5.15901C30.7011 4.73705 31.337 4.5 32 4.5Z" fill="white"/>
</svg>
