<svg width="51" height="51" viewBox="0 0 51 51" fill="none" xmlns="http://www.w3.org/2000/svg">
<path d="M25.8359 0.777344C23.6258 0.777344 21.5062 1.56752 19.9434 2.97404C18.3806 4.38057 17.5026 6.28822 17.5026 8.27734C17.5017 9.82897 18.0355 11.3427 19.0305 12.6098C20.0255 13.8769 21.4327 14.8351 23.0582 15.3523V18.2773H14.7248V23.2773H23.0582V45.5773C21.0026 45.2523 18.8915 44.7273 16.9193 43.9523C14.8637 43.1523 13.0582 42.1773 11.447 41.0023C9.83594 39.8273 8.55816 38.5523 7.61372 37.1523L11.947 33.2773L0.835938 25.7773V33.2773C0.835938 35.7023 1.58594 37.9773 3.11372 40.0773C4.64149 42.1773 6.64149 44.0523 9.16927 45.6523C11.5859 47.2523 14.2804 48.5023 17.1693 49.4023C20.0859 50.3023 22.9748 50.7773 25.8359 50.7773C28.697 50.7773 31.5859 50.2773 34.5026 49.3773C37.3915 48.4773 40.0859 47.2273 42.5026 45.6523C45.0582 44.0523 47.0304 42.2023 48.5582 40.0773C50.0859 37.9773 50.8359 35.7023 50.8359 33.2773V25.7773L39.7248 33.2773L44.0582 37.1523C43.1137 38.5523 41.8359 39.8273 40.2248 41.0023C38.6137 42.1773 36.8082 43.1523 34.7526 43.9523C32.7804 44.7273 30.6693 45.2523 28.6137 45.5773V23.2773H36.947V18.2773H28.6137V15.3273C30.2347 14.8116 31.6387 13.8572 32.6333 12.595C33.6279 11.3328 34.1644 9.8247 34.1693 8.27734C34.1693 6.28822 33.2913 4.38057 31.7285 2.97404C30.1657 1.56752 28.0461 0.777344 25.8359 0.777344ZM25.8359 5.77734C26.5726 5.77734 27.2792 6.04074 27.8001 6.50958C28.3211 6.97842 28.6137 7.6143 28.6137 8.27734C28.6137 8.94038 28.3211 9.57627 27.8001 10.0451C27.2792 10.514 26.5726 10.7773 25.8359 10.7773C25.0992 10.7773 24.3927 10.514 23.8718 10.0451C23.3508 9.57627 23.0582 8.94038 23.0582 8.27734C23.0582 7.6143 23.3508 6.97842 23.8718 6.50958C24.3927 6.04074 25.0992 5.77734 25.8359 5.77734V5.77734Z" fill="white"/>
</svg>
